<?xml version="1.0" encoding="UTF-8"?>
<!DOCTYPE svg PUBLIC "-//W3C//DTD SVG 1.1//EN" "http://www.w3.org/Graphics/SVG/1.1/DTD/svg11.dtd">
<svg xmlns="http://www.w3.org/2000/svg" version="1.1" width="2000px" height="988px" style="shape-rendering:geometricPrecision; text-rendering:geometricPrecision; image-rendering:optimizeQuality; fill-rule:evenodd; clip-rule:evenodd" xmlns:xlink="http://www.w3.org/1999/xlink">
<g><path style="opacity:0.968" fill="#87184d" d="M 1976.5,650.5 C 1973.32,665.074 1969.98,679.74 1966.5,694.5C 1930.23,812.275 1855.89,896.441 1743.5,947C 1728.06,953.203 1712.39,958.703 1696.5,963.5C 1681.07,966.861 1665.73,970.195 1650.5,973.5C 1530.11,988.304 1424.44,956.137 1333.5,877C 1314.25,857.918 1295.91,838.085 1278.5,817.5C 1234.74,776.192 1182.74,758.692 1122.5,765C 1105.4,768.191 1088.4,771.858 1071.5,776C 1020.77,784.936 970.104,784.603 919.5,775C 897.418,768.583 874.918,764.75 852,763.5C 798.291,764.944 752.624,784.61 715,822.5C 639.767,918.374 540.934,969.874 418.5,977C 287.553,977.767 181.053,927.601 99,826.5C 26.8531,729.792 3.1864,622.125 28,503.5C 56.0122,391.864 119.846,307.697 219.5,251C 299.134,208.672 383.467,195.006 472.5,210C 489.836,213.667 507.169,217.334 524.5,221C 591.902,228.428 648.402,207.261 694,157.5C 772.287,61.511 873.787,12.1777 998.5,9.5C 1124.45,12.5608 1226.62,62.8941 1305,160.5C 1351.44,209.427 1408.27,229.593 1475.5,221C 1490.53,217.825 1505.53,214.492 1520.5,211C 1649.6,189.511 1762.6,222.178 1859.5,309C 1954.31,403.256 1993.31,517.089 1976.5,650.5 Z"/></g>
<g><path style="opacity:0.702" fill="#f9ebfe" d="M 998.5,18.5 C 998.5,57.5 998.5,96.5 998.5,135.5C 952.167,135.5 905.833,135.5 859.5,135.5C 859.5,105.167 859.5,74.8333 859.5,44.5C 904.175,27.1093 950.508,18.4426 998.5,18.5 Z"/></g>
<g><path style="opacity:0.866" fill="#f7e1fe" d="M 998.5,18.5 C 1047.01,18.537 1093.68,27.537 1138.5,45.5C 1138.5,75.5 1138.5,105.5 1138.5,135.5C 1182.67,135.832 1226.67,135.499 1270.5,134.5C 1273.5,136.833 1276.17,139.5 1278.5,142.5C 1277.5,186.664 1277.17,230.997 1277.5,275.5C 1231.17,275.5 1184.83,275.5 1138.5,275.5C 1138.5,316.833 1138.5,358.167 1138.5,399.5C 1096.83,399.5 1055.17,399.5 1013.5,399.5C 1013.18,404.032 1013.52,408.366 1014.5,412.5C 1051.49,409.949 1088.49,407.782 1125.5,406C 1123.02,409.145 1120.69,412.312 1118.5,415.5C 1079,414.501 1039.34,414.168 999.5,414.5C 999.5,368.167 999.5,321.833 999.5,275.5C 1045.5,275.667 1091.5,275.5 1137.5,275C 1138.5,228.905 1138.83,182.739 1138.5,136.5C 1091.83,136.5 1045.17,136.5 998.5,136.5C 998.5,182.833 998.5,229.167 998.5,275.5C 952.167,275.5 905.833,275.5 859.5,275.5C 859.5,229.167 859.5,182.833 859.5,136.5C 814.167,136.5 768.833,136.5 723.5,136.5C 761.981,95.9098 807.314,65.2431 859.5,44.5C 859.5,74.8333 859.5,105.167 859.5,135.5C 905.833,135.5 952.167,135.5 998.5,135.5C 998.5,96.5 998.5,57.5 998.5,18.5 Z"/></g>
<g><path style="opacity:0.702" fill="#f9ebfe" d="M 1138.5,45.5 C 1189.02,65.7162 1233.02,95.3828 1270.5,134.5C 1226.67,135.499 1182.67,135.832 1138.5,135.5C 1138.5,105.5 1138.5,75.5 1138.5,45.5 Z"/></g>
<g><path style="opacity:0.702" fill="#f9ebfe" d="M 723.5,136.5 C 768.833,136.5 814.167,136.5 859.5,136.5C 859.5,182.833 859.5,229.167 859.5,275.5C 813.167,275.5 766.833,275.5 720.5,275.5C 720.5,230.5 720.5,185.5 720.5,140.5C 721.5,139.167 722.5,137.833 723.5,136.5 Z"/></g>
<g><path style="opacity:0.702" fill="#f9ebfe" d="M 1118.5,415.5 C 1087.4,462.043 1056.07,508.377 1024.5,554.5C 1015.91,554.817 1007.41,554.483 999,553.5C 998.5,507.168 998.333,460.835 998.5,414.5C 987.5,414.5 976.5,414.5 965.5,414.5C 965.5,409.5 965.5,404.5 965.5,399.5C 959.5,399.5 953.5,399.5 947.5,399.5C 947.5,401.5 947.5,403.5 947.5,405.5C 947.5,408.5 947.5,411.5 947.5,414.5C 918.167,414.5 888.833,414.5 859.5,414.5C 859.5,368.167 859.5,321.833 859.5,275.5C 905.833,275.5 952.167,275.5 998.5,275.5C 998.5,229.167 998.5,182.833 998.5,136.5C 1045.17,136.5 1091.83,136.5 1138.5,136.5C 1138.83,182.739 1138.5,228.905 1137.5,275C 1091.5,275.5 1045.5,275.667 999.5,275.5C 999.5,321.833 999.5,368.167 999.5,414.5C 1039.34,414.168 1079,414.501 1118.5,415.5 Z"/></g>
<g><path style="opacity:0.866" fill="#f7e1fe" d="M 720.5,140.5 C 720.5,185.5 720.5,230.5 720.5,275.5C 766.833,275.5 813.167,275.5 859.5,275.5C 859.5,321.833 859.5,368.167 859.5,414.5C 850.833,414.5 842.167,414.5 833.5,414.5C 833.5,449.833 833.5,485.167 833.5,520.5C 832.501,480.67 832.168,440.67 832.5,400.5C 826.69,399.51 820.69,399.177 814.5,399.5C 814.5,404.5 814.5,409.5 814.5,414.5C 794.5,414.5 774.5,414.5 754.5,414.5C 754.451,411.626 754.784,408.792 755.5,406C 755.245,404.674 754.578,403.674 753.5,403C 738.006,397.239 722.006,395.072 705.5,396.5C 709.97,395.514 714.637,395.181 719.5,395.5C 719.5,355.5 719.5,315.5 719.5,275.5C 673.167,275.5 626.833,275.5 580.5,275.5C 580.5,260.167 580.5,244.833 580.5,229.5C 621.545,222.643 657.212,205.143 687.5,177C 698.366,164.638 709.366,152.472 720.5,140.5 Z"/></g>
<g><path style="opacity:0.703" fill="#f9ebfe" d="M 1278.5,142.5 C 1296.46,166.29 1317.79,186.457 1342.5,203C 1365.74,217.022 1390.74,226.189 1417.5,230.5C 1417.82,245.412 1417.49,260.245 1416.5,275C 1370.17,275.5 1323.83,275.667 1277.5,275.5C 1277.17,230.997 1277.5,186.664 1278.5,142.5 Z"/></g>
<g><path style="opacity:0.703" fill="#f9ebfe" d="M 1696.5,227.5 C 1696.82,243.411 1696.49,259.244 1695.5,275C 1649.17,275.5 1602.83,275.667 1556.5,275.5C 1556.5,255.167 1556.5,234.833 1556.5,214.5C 1604.14,209.792 1650.8,214.125 1696.5,227.5 Z"/></g>
<g><path style="opacity:0.703" fill="#f9ebfe" d="M 441.5,214.5 C 453.886,215.897 466.219,217.731 478.5,220C 496.618,224.78 514.951,228.446 533.5,231C 549.22,231.853 564.887,231.353 580.5,229.5C 580.5,244.833 580.5,260.167 580.5,275.5C 534.167,275.5 487.833,275.5 441.5,275.5C 441.5,255.167 441.5,234.833 441.5,214.5 Z"/></g>
<g><path style="opacity:0.703" fill="#f9eafe" d="M 300.5,227.5 C 301.496,243.325 301.83,259.325 301.5,275.5C 266.663,275.832 231.996,275.498 197.5,274.5C 229.369,253.645 263.702,237.978 300.5,227.5 Z"/></g>
<g><path style="opacity:0.866" fill="#f7e1fe" d="M 197.5,274.5 C 231.996,275.498 266.663,275.832 301.5,275.5C 301.5,321.833 301.5,368.167 301.5,414.5C 254.833,414.5 208.167,414.5 161.5,414.5C 161.832,376.996 161.498,339.663 160.5,302.5C 172.242,292.43 184.575,283.096 197.5,274.5 Z"/></g>
<g><path style="opacity:0.702" fill="#f9ebfe" d="M 301.5,275.5 C 347.833,275.5 394.167,275.5 440.5,275.5C 440.5,321.833 440.5,368.167 440.5,414.5C 432.167,414.5 423.833,414.5 415.5,414.5C 413.632,409.562 411.965,404.562 410.5,399.5C 404.824,399.334 399.157,399.501 393.5,400C 391.082,404.668 389.082,409.501 387.5,414.5C 358.833,414.5 330.167,414.5 301.5,414.5C 301.5,368.167 301.5,321.833 301.5,275.5 Z"/></g>
<g><path style="opacity:0.866" fill="#f7e1fe" d="M 441.5,214.5 C 441.5,234.833 441.5,255.167 441.5,275.5C 487.833,275.5 534.167,275.5 580.5,275.5C 580.5,321.833 580.5,368.167 580.5,414.5C 557.833,414.5 535.167,414.5 512.5,414.5C 509.066,409.82 505.733,404.987 502.5,400C 495.833,399.333 489.167,399.333 482.5,400C 485.386,404.945 488.386,409.779 491.5,414.5C 474.833,414.5 458.167,414.5 441.5,414.5C 441.5,436.5 441.5,458.5 441.5,480.5C 432.657,458.65 423.99,436.65 415.5,414.5C 423.833,414.5 432.167,414.5 440.5,414.5C 440.5,368.167 440.5,321.833 440.5,275.5C 394.167,275.5 347.833,275.5 301.5,275.5C 301.83,259.325 301.496,243.325 300.5,227.5C 346.488,213.75 393.488,209.416 441.5,214.5 Z"/></g>
<g><path style="opacity:0.702" fill="#f9ebfe" d="M 580.5,275.5 C 626.833,275.5 673.167,275.5 719.5,275.5C 719.5,315.5 719.5,355.5 719.5,395.5C 714.637,395.181 709.97,395.514 705.5,396.5C 690.645,397.428 678.312,403.428 668.5,414.5C 653.324,414.829 638.324,414.496 623.5,413.5C 625.514,408.643 628.181,404.143 631.5,400C 624.476,399.169 617.476,399.336 610.5,400.5C 608.153,405.193 605.82,409.86 603.5,414.5C 595.833,414.5 588.167,414.5 580.5,414.5C 580.5,368.167 580.5,321.833 580.5,275.5 Z"/></g>
<g><path style="opacity:0.702" fill="#f9ebfe" d="M 1277.5,275.5 C 1277.5,316.833 1277.5,358.167 1277.5,399.5C 1250.83,399.5 1224.17,399.5 1197.5,399.5C 1197.5,404.5 1197.5,409.5 1197.5,414.5C 1178.83,414.5 1160.17,414.5 1141.5,414.5C 1142.9,411.366 1144.57,408.366 1146.5,405.5C 1147.46,403.735 1147.79,401.735 1147.5,399.5C 1144.5,399.5 1141.5,399.5 1138.5,399.5C 1138.5,358.167 1138.5,316.833 1138.5,275.5C 1184.83,275.5 1231.17,275.5 1277.5,275.5 Z"/></g>
<g><path style="opacity:0.702" fill="#f9ebfe" d="M 1556.5,275.5 C 1556.5,321.833 1556.5,368.167 1556.5,414.5C 1544.83,414.5 1533.17,414.5 1521.5,414.5C 1516.41,408.231 1511.07,402.064 1505.5,396C 1504.55,395.517 1503.55,395.351 1502.5,395.5C 1502.35,401.845 1502.01,408.178 1501.5,414.5C 1484.33,414.83 1467.33,414.497 1450.5,413.5C 1452.51,408.643 1455.18,404.143 1458.5,400C 1451.48,399.169 1444.48,399.336 1437.5,400.5C 1435.12,405.259 1432.79,409.925 1430.5,414.5C 1426.17,414.5 1421.83,414.5 1417.5,414.5C 1417.5,368.167 1417.5,321.833 1417.5,275.5C 1463.83,275.5 1510.17,275.5 1556.5,275.5 Z"/></g>
<g><path style="opacity:0.702" fill="#f9ebfe" d="M 1802.5,275.5 C 1814.71,283.048 1826.04,291.714 1836.5,301.5C 1836.5,339.167 1836.5,376.833 1836.5,414.5C 1867.17,414.5 1897.83,414.5 1928.5,414.5C 1951.03,456.439 1964.7,501.106 1969.5,548.5C 1969.5,550.5 1969.5,552.5 1969.5,554.5C 1925.17,554.5 1880.83,554.5 1836.5,554.5C 1836.5,600.833 1836.5,647.167 1836.5,693.5C 1876.83,693.5 1917.17,693.5 1957.5,693.5C 1942.48,745.226 1917.81,791.559 1883.5,832.5C 1867.83,832.5 1852.17,832.5 1836.5,832.5C 1836.5,848.167 1836.5,863.833 1836.5,879.5C 1795.54,913.82 1749.2,938.487 1697.5,953.5C 1696.5,913.67 1696.17,873.67 1696.5,833.5C 1742.83,833.5 1789.17,833.5 1835.5,833.5C 1835.5,786.833 1835.5,740.167 1835.5,693.5C 1789.17,693.5 1742.83,693.5 1696.5,693.5C 1696.5,647.167 1696.5,600.833 1696.5,554.5C 1742.83,554.5 1789.17,554.5 1835.5,554.5C 1835.5,507.833 1835.5,461.167 1835.5,414.5C 1789.17,414.5 1742.83,414.5 1696.5,414.5C 1696.5,368.167 1696.5,321.833 1696.5,275.5C 1731.83,275.5 1767.17,275.5 1802.5,275.5 Z"/></g>
<g><path style="opacity:0.867" fill="#f7e1fe" d="M 1836.5,301.5 C 1874.99,332.805 1905.65,370.471 1928.5,414.5C 1897.83,414.5 1867.17,414.5 1836.5,414.5C 1836.5,376.833 1836.5,339.167 1836.5,301.5 Z"/></g>
<g><path style="opacity:0.702" fill="#f9ebfe" d="M 160.5,302.5 C 161.498,339.663 161.832,376.996 161.5,414.5C 131.329,414.831 101.329,414.498 71.5,413.5C 93.7662,370.673 123.433,333.673 160.5,302.5 Z"/></g>
<g><path style="opacity:1" fill="#87194e" d="M 705.5,396.5 C 722.006,395.072 738.006,397.239 753.5,403C 754.578,403.674 755.245,404.674 755.5,406C 754.784,408.792 754.451,411.626 754.5,414.5C 754.5,415.833 754.5,417.167 754.5,418.5C 751.697,418.039 749.363,416.705 747.5,414.5C 739.546,407.53 730.212,403.863 719.5,403.5C 705.444,400.349 693.444,404.015 683.5,414.5C 677.824,420.008 675.157,426.842 675.5,435C 676.854,448.361 683.188,458.694 694.5,466C 702.726,471.945 711.393,477.111 720.5,481.5C 728.101,486.644 735.768,491.81 743.5,497C 762.174,511.518 768.84,530.352 763.5,553.5C 756.203,574.485 741.537,586.485 719.5,589.5C 698.623,590.576 678.29,587.743 658.5,581C 657.422,580.326 656.755,579.326 656.5,578C 657.345,573.539 657.678,569.039 657.5,564.5C 659.308,564.491 660.975,564.991 662.5,566C 679.158,579.496 698.158,584.996 719.5,582.5C 735.098,579.235 744.764,569.901 748.5,554.5C 750.52,545.415 749.354,536.749 745,528.5C 738.624,519.29 730.791,511.624 721.5,505.5C 707.898,496.691 694.231,487.857 680.5,479C 658.487,460.776 654.487,439.276 668.5,414.5C 678.312,403.428 690.645,397.428 705.5,396.5 Z"/></g>
<g><path style="opacity:1" fill="#881b4f" d="M 1521.5,414.5 C 1532.7,428.909 1544.37,442.909 1556.5,456.5C 1583.77,490.438 1611.43,524.105 1639.5,557.5C 1639.83,553.167 1640.17,548.833 1640.5,544.5C 1638.93,501.148 1637.26,457.814 1635.5,414.5C 1635.5,409.5 1635.5,404.5 1635.5,399.5C 1641.5,399.5 1647.5,399.5 1653.5,399.5C 1653.5,404.5 1653.5,409.5 1653.5,414.5C 1651.4,459.815 1649.73,505.149 1648.5,550.5C 1647.5,563.323 1647.17,576.323 1647.5,589.5C 1645.71,589.785 1644.05,589.452 1642.5,588.5C 1633.29,576.723 1623.62,565.39 1613.5,554.5C 1594.87,531.203 1575.87,508.203 1556.5,485.5C 1541.23,466.222 1525.56,447.222 1509.5,428.5C 1509.86,470.505 1511.19,512.505 1513.5,554.5C 1513.5,561.5 1513.5,568.5 1513.5,575.5C 1513.5,578.833 1513.5,582.167 1513.5,585.5C 1507.83,585.5 1502.17,585.5 1496.5,585.5C 1496.5,580.833 1496.5,576.167 1496.5,571.5C 1496.5,565.833 1496.5,560.167 1496.5,554.5C 1498.41,507.845 1500.08,461.179 1501.5,414.5C 1502.01,408.178 1502.35,401.845 1502.5,395.5C 1503.55,395.351 1504.55,395.517 1505.5,396C 1511.07,402.064 1516.41,408.231 1521.5,414.5 Z"/></g>
<g><path style="opacity:0.965" fill="#a24a79" d="M 1138.5,399.5 C 1141.5,399.5 1144.5,399.5 1147.5,399.5C 1147.79,401.735 1147.46,403.735 1146.5,405.5C 1146.5,403.833 1146.5,402.167 1146.5,400.5C 1102.5,400.5 1058.5,400.5 1014.5,400.5C 1014.5,404.5 1014.5,408.5 1014.5,412.5C 1013.52,408.366 1013.18,404.032 1013.5,399.5C 1055.17,399.5 1096.83,399.5 1138.5,399.5 Z"/></g>
<g><path style="opacity:1" fill="#86184d" d="M 415.5,414.5 C 423.99,436.65 432.657,458.65 441.5,480.5C 450.635,505.238 459.968,529.904 469.5,554.5C 473.167,564.5 476.833,574.5 480.5,584.5C 474.355,585.49 468.022,585.823 461.5,585.5C 450.548,556.598 439.882,527.598 429.5,498.5C 409.156,498.167 388.822,498.5 368.5,499.5C 362.22,517.671 356.554,536.004 351.5,554.5C 347.796,564.614 344.463,574.947 341.5,585.5C 334.978,585.823 328.645,585.49 322.5,584.5C 326.167,574.5 329.833,564.5 333.5,554.5C 351.696,507.912 369.696,461.245 387.5,414.5C 389.082,409.501 391.082,404.668 393.5,400C 399.157,399.501 404.824,399.334 410.5,399.5C 411.965,404.562 413.632,409.562 415.5,414.5 Z"/></g>
<g><path style="opacity:1" fill="#86184d" d="M 512.5,414.5 C 528.58,441.763 544.914,468.93 561.5,496C 562.635,496.749 563.635,496.583 564.5,495.5C 569.845,484.145 575.178,472.812 580.5,461.5C 588.403,446.026 596.07,430.359 603.5,414.5C 605.82,409.86 608.153,405.193 610.5,400.5C 617.476,399.336 624.476,399.169 631.5,400C 628.181,404.143 625.514,408.643 623.5,413.5C 608.597,436.963 593.93,460.63 579.5,484.5C 575.833,490.5 572.167,496.5 568.5,502.5C 567.502,530.328 567.169,558.328 567.5,586.5C 561.167,586.5 554.833,586.5 548.5,586.5C 548.5,575.833 548.5,565.167 548.5,554.5C 548.667,538.497 548.5,522.497 548,506.5C 528.905,475.973 510.071,445.306 491.5,414.5C 488.386,409.779 485.386,404.945 482.5,400C 489.167,399.333 495.833,399.333 502.5,400C 505.733,404.987 509.066,409.82 512.5,414.5 Z"/></g>
<g><path style="opacity:1" fill="#86174d" d="M 965.5,414.5 C 963.618,453.813 962.118,493.147 961,532.5C 959.785,540.027 957.952,547.36 955.5,554.5C 945.869,574.6 929.869,586.1 907.5,589C 891.255,590.494 875.255,589.328 859.5,585.5C 844.073,578.743 832.073,568.076 823.5,553.5C 818.581,543.408 815.915,532.741 815.5,521.5C 815.5,481.167 815.5,440.833 815.5,400.5C 821.167,400.5 826.833,400.5 832.5,400.5C 832.168,440.67 832.501,480.67 833.5,520.5C 834.06,532.756 837.393,544.089 843.5,554.5C 847.43,561.432 852.764,567.099 859.5,571.5C 882.504,583.466 905.504,583.3 928.5,571C 935.38,566.954 940.714,561.454 944.5,554.5C 950.519,544.254 953.185,533.088 952.5,521C 951.153,482.327 949.486,443.827 947.5,405.5C 947.5,403.5 947.5,401.5 947.5,399.5C 953.5,399.5 959.5,399.5 965.5,399.5C 965.5,404.5 965.5,409.5 965.5,414.5 Z"/></g>
<g><path style="opacity:1" fill="#86184d" d="M 1146.5,405.5 C 1144.57,408.366 1142.9,411.366 1141.5,414.5C 1139.94,415.945 1138.6,417.611 1137.5,419.5C 1107.08,463.912 1077.08,508.578 1047.5,553.5C 1041.17,561.85 1035.17,570.517 1029.5,579.5C 1065.93,578.731 1102.26,576.398 1138.5,572.5C 1141.5,572.5 1144.5,572.5 1147.5,572.5C 1147.5,576.833 1147.5,581.167 1147.5,585.5C 1100.83,585.5 1054.17,585.5 1007.5,585.5C 1007.5,583.833 1007.5,582.167 1007.5,580.5C 1013.17,571.833 1018.83,563.167 1024.5,554.5C 1056.07,508.377 1087.4,462.043 1118.5,415.5C 1120.69,412.312 1123.02,409.145 1125.5,406C 1088.49,407.782 1051.49,409.949 1014.5,412.5C 1014.5,408.5 1014.5,404.5 1014.5,400.5C 1058.5,400.5 1102.5,400.5 1146.5,400.5C 1146.5,402.167 1146.5,403.833 1146.5,405.5 Z"/></g>
<g><path style="opacity:1" fill="#86164c" d="M 1278.5,412.5 C 1278.17,412.5 1277.83,412.5 1277.5,412.5C 1257.2,409.92 1236.86,407.587 1216.5,405.5C 1215.5,432.328 1215.17,459.328 1215.5,486.5C 1218.06,486.802 1220.39,486.468 1222.5,485.5C 1238.16,484.755 1253.83,484.088 1269.5,483.5C 1271.5,483.5 1273.5,483.5 1275.5,483.5C 1275.5,487.167 1275.5,490.833 1275.5,494.5C 1273.83,494.5 1272.17,494.5 1270.5,494.5C 1256.49,493.966 1242.49,493.3 1228.5,492.5C 1224.37,491.515 1220.03,491.182 1215.5,491.5C 1215.17,521.338 1215.5,551.005 1216.5,580.5C 1236.5,578.166 1256.5,575.833 1276.5,573.5C 1277.5,573.5 1278.5,573.5 1279.5,573.5C 1279.5,577.5 1279.5,581.5 1279.5,585.5C 1252.5,585.5 1225.5,585.5 1198.5,585.5C 1198.5,523.833 1198.5,462.167 1198.5,400.5C 1225.17,400.5 1251.83,400.5 1278.5,400.5C 1278.5,404.5 1278.5,408.5 1278.5,412.5 Z"/></g>
<g><path style="opacity:1" fill="#86184d" d="M 1339.5,414.5 C 1355.58,441.763 1371.91,468.93 1388.5,496C 1389.64,496.749 1390.64,496.583 1391.5,495.5C 1400.45,477.266 1409.12,458.933 1417.5,440.5C 1422.34,432.151 1426.67,423.484 1430.5,414.5C 1432.79,409.925 1435.12,405.259 1437.5,400.5C 1444.48,399.336 1451.48,399.169 1458.5,400C 1455.18,404.143 1452.51,408.643 1450.5,413.5C 1438.93,431.63 1427.6,449.963 1416.5,468.5C 1409.11,479.9 1402.11,491.566 1395.5,503.5C 1394.5,530.995 1394.17,558.662 1394.5,586.5C 1388.17,586.5 1381.83,586.5 1375.5,586.5C 1375.5,575.833 1375.5,565.167 1375.5,554.5C 1375.67,538.497 1375.5,522.497 1375,506.5C 1356.34,475.684 1337.5,445.017 1318.5,414.5C 1315.39,409.779 1312.39,404.945 1309.5,400C 1316.52,399.169 1323.52,399.336 1330.5,400.5C 1333.03,405.571 1336.03,410.238 1339.5,414.5 Z"/></g>
<g><path style="opacity:0.702" fill="#f8e8fc" d="M 719.5,403.5 C 719.5,407.167 719.5,410.833 719.5,414.5C 707.5,414.5 695.5,414.5 683.5,414.5C 693.444,404.015 705.444,400.349 719.5,403.5 Z"/></g>
<g><path style="opacity:0.863" fill="#f7e0fd" d="M 719.5,403.5 C 730.212,403.863 739.546,407.53 747.5,414.5C 738.5,414.5 729.5,414.5 720.5,414.5C 720.5,436.833 720.5,459.167 720.5,481.5C 711.393,477.111 702.726,471.945 694.5,466C 683.188,458.694 676.854,448.361 675.5,435C 675.157,426.842 677.824,420.008 683.5,414.5C 695.5,414.5 707.5,414.5 719.5,414.5C 719.5,410.833 719.5,407.167 719.5,403.5 Z"/></g>
<g><path style="opacity:0.702" fill="#f9ebfe" d="M 1216.5,405.5 C 1236.86,407.587 1257.2,409.92 1277.5,412.5C 1257.53,414.488 1237.19,415.155 1216.5,414.5C 1216.5,411.5 1216.5,408.5 1216.5,405.5 Z"/></g>
<g><path style="opacity:0.866" fill="#f7e1fe" d="M 71.5,413.5 C 101.329,414.498 131.329,414.831 161.5,414.5C 161.5,461.167 161.5,507.833 161.5,554.5C 117.167,554.5 72.8333,554.5 28.5,554.5C 32.9971,504.353 47.3304,457.353 71.5,413.5 Z"/></g>
<g><path style="opacity:0.866" fill="#f7e1fe" d="M 301.5,414.5 C 330.167,414.5 358.833,414.5 387.5,414.5C 369.696,461.245 351.696,507.912 333.5,554.5C 322.833,554.5 312.167,554.5 301.5,554.5C 301.5,507.833 301.5,461.167 301.5,414.5 Z"/></g>
<g><path style="opacity:0.867" fill="#f6dffd" d="M 425.5,490.5 C 407.5,491.833 389.5,491.833 371.5,490.5C 378.591,464.46 386.758,438.794 396,413.5C 406.383,438.937 416.216,464.603 425.5,490.5 Z"/></g>
<g><path style="opacity:0.702" fill="#f9ebfe" d="M 512.5,414.5 C 535.167,414.5 557.833,414.5 580.5,414.5C 580.5,430.167 580.5,445.833 580.5,461.5C 575.178,472.812 569.845,484.145 564.5,495.5C 563.635,496.583 562.635,496.749 561.5,496C 544.914,468.93 528.58,441.763 512.5,414.5 Z"/></g>
<g><path style="opacity:0.865" fill="#f6dffd" d="M 580.5,414.5 C 588.167,414.5 595.833,414.5 603.5,414.5C 596.07,430.359 588.403,446.026 580.5,461.5C 580.5,445.833 580.5,430.167 580.5,414.5 Z"/></g>
<g><path style="opacity:0.953" fill="#953364" d="M 832.5,400.5 C 826.833,400.5 821.167,400.5 815.5,400.5C 815.5,440.833 815.5,481.167 815.5,521.5C 814.502,486.004 814.168,450.337 814.5,414.5C 814.5,409.5 814.5,404.5 814.5,399.5C 820.69,399.177 826.69,399.51 832.5,400.5 Z"/></g>
<g><path style="opacity:0.866" fill="#f7e1fe" d="M 947.5,405.5 C 949.486,443.827 951.153,482.327 952.5,521C 953.185,533.088 950.519,544.254 944.5,554.5C 916.167,554.5 887.833,554.5 859.5,554.5C 859.5,560.167 859.5,565.833 859.5,571.5C 852.764,567.099 847.43,561.432 843.5,554.5C 848.762,554.805 853.928,554.471 859,553.5C 859.5,507.168 859.667,460.835 859.5,414.5C 888.833,414.5 918.167,414.5 947.5,414.5C 947.5,411.5 947.5,408.5 947.5,405.5 Z"/></g>
<g><path style="opacity:0.866" fill="#f7e1fe" d="M 1141.5,414.5 C 1160.17,414.5 1178.83,414.5 1197.5,414.5C 1197.5,461.167 1197.5,507.833 1197.5,554.5C 1177.83,554.5 1158.17,554.5 1138.5,554.5C 1138.5,560.5 1138.5,566.5 1138.5,572.5C 1102.26,576.398 1065.93,578.731 1029.5,579.5C 1035.17,570.517 1041.17,561.85 1047.5,553.5C 1077.57,554.832 1107.74,554.832 1138,553.5C 1138.83,508.665 1138.66,463.998 1137.5,419.5C 1138.6,417.611 1139.94,415.945 1141.5,414.5 Z"/></g>
<g><path style="opacity:0.965" fill="#a14776" d="M 1277.5,399.5 C 1278.8,401.223 1279.47,403.39 1279.5,406C 1279.5,408.361 1279.16,410.527 1278.5,412.5C 1278.5,408.5 1278.5,404.5 1278.5,400.5C 1251.83,400.5 1225.17,400.5 1198.5,400.5C 1198.5,462.167 1198.5,523.833 1198.5,585.5C 1225.5,585.5 1252.5,585.5 1279.5,585.5C 1279.16,586.338 1278.49,586.672 1277.5,586.5C 1250.83,586.5 1224.17,586.5 1197.5,586.5C 1197.5,575.833 1197.5,565.167 1197.5,554.5C 1197.5,507.833 1197.5,461.167 1197.5,414.5C 1197.5,409.5 1197.5,404.5 1197.5,399.5C 1224.17,399.5 1250.83,399.5 1277.5,399.5 Z"/></g>
<g><path style="opacity:0.866" fill="#f7e1fe" d="M 1556.5,214.5 C 1556.5,234.833 1556.5,255.167 1556.5,275.5C 1510.17,275.5 1463.83,275.5 1417.5,275.5C 1417.5,321.833 1417.5,368.167 1417.5,414.5C 1421.83,414.5 1426.17,414.5 1430.5,414.5C 1426.67,423.484 1422.34,432.151 1417.5,440.5C 1417.82,431.915 1417.48,423.415 1416.5,415C 1390.84,414.5 1365.17,414.333 1339.5,414.5C 1336.03,410.238 1333.03,405.571 1330.5,400.5C 1323.52,399.336 1316.52,399.169 1309.5,400C 1312.39,404.945 1315.39,409.779 1318.5,414.5C 1304.92,414.177 1291.42,414.51 1278,415.5C 1277.33,461.5 1277.33,507.5 1278,553.5C 1310.43,554.496 1342.93,554.829 1375.5,554.5C 1375.5,565.167 1375.5,575.833 1375.5,586.5C 1381.83,586.5 1388.17,586.5 1394.5,586.5C 1394.17,558.662 1394.5,530.995 1395.5,503.5C 1395.5,520.5 1395.5,537.5 1395.5,554.5C 1402.75,554.813 1409.92,554.48 1417,553.5C 1417.83,524.997 1417.66,496.664 1416.5,468.5C 1427.6,449.963 1438.93,431.63 1450.5,413.5C 1467.33,414.497 1484.33,414.83 1501.5,414.5C 1500.08,461.179 1498.41,507.845 1496.5,554.5C 1470.17,554.5 1443.83,554.5 1417.5,554.5C 1417.5,600.833 1417.5,647.167 1417.5,693.5C 1463.83,693.5 1510.17,693.5 1556.5,693.5C 1556.5,740.167 1556.5,786.833 1556.5,833.5C 1510.17,833.5 1463.83,833.5 1417.5,833.5C 1417.5,863.833 1417.5,894.167 1417.5,924.5C 1373.32,901.671 1335.32,871.004 1303.5,832.5C 1341.5,832.5 1379.5,832.5 1417.5,832.5C 1417.83,786.261 1417.5,740.095 1416.5,694C 1370.5,693.333 1324.5,693.333 1278.5,694C 1277.5,730.761 1277.17,767.594 1277.5,804.5C 1237.67,770.441 1191.34,753.774 1138.5,754.5C 1138.5,734.167 1138.5,713.833 1138.5,693.5C 1184.83,693.5 1231.17,693.5 1277.5,693.5C 1277.5,657.833 1277.5,622.167 1277.5,586.5C 1278.49,586.672 1279.16,586.338 1279.5,585.5C 1279.5,581.5 1279.5,577.5 1279.5,573.5C 1278.5,573.5 1277.5,573.5 1276.5,573.5C 1277.46,567.256 1277.79,560.923 1277.5,554.5C 1257.17,554.5 1236.83,554.5 1216.5,554.5C 1216.5,533.833 1216.5,513.167 1216.5,492.5C 1220.5,492.5 1224.5,492.5 1228.5,492.5C 1242.49,493.3 1256.49,493.966 1270.5,494.5C 1272.26,495.461 1274.26,495.795 1276.5,495.5C 1276.5,491.167 1276.5,486.833 1276.5,482.5C 1273.94,482.198 1271.61,482.532 1269.5,483.5C 1253.83,484.088 1238.16,484.755 1222.5,485.5C 1220.5,485.5 1218.5,485.5 1216.5,485.5C 1216.5,461.833 1216.5,438.167 1216.5,414.5C 1237.19,415.155 1257.53,414.488 1277.5,412.5C 1277.83,412.5 1278.17,412.5 1278.5,412.5C 1279.16,410.527 1279.5,408.361 1279.5,406C 1279.47,403.39 1278.8,401.223 1277.5,399.5C 1277.5,358.167 1277.5,316.833 1277.5,275.5C 1323.83,275.667 1370.17,275.5 1416.5,275C 1417.49,260.245 1417.82,245.412 1417.5,230.5C 1436.51,231.952 1455.51,231.785 1474.5,230C 1490.88,226.59 1507.21,222.924 1523.5,219C 1534.43,216.926 1545.43,215.426 1556.5,214.5 Z"/></g>
<g><path style="opacity:0.865" fill="#f6e0fd" d="M 1521.5,414.5 C 1533.17,414.5 1544.83,414.5 1556.5,414.5C 1556.5,428.5 1556.5,442.5 1556.5,456.5C 1544.37,442.909 1532.7,428.909 1521.5,414.5 Z"/></g>
<g><path style="opacity:0.702" fill="#f9ebfe" d="M 1556.5,414.5 C 1582.83,414.5 1609.17,414.5 1635.5,414.5C 1637.26,457.814 1638.93,501.148 1640.5,544.5C 1640.17,548.833 1639.83,553.167 1639.5,557.5C 1611.43,524.105 1583.77,490.438 1556.5,456.5C 1556.5,442.5 1556.5,428.5 1556.5,414.5 Z"/></g>
<g><path style="opacity:0.702" fill="#f9ebff" d="M 161.5,414.5 C 208.167,414.5 254.833,414.5 301.5,414.5C 301.5,461.167 301.5,507.833 301.5,554.5C 254.833,554.5 208.167,554.5 161.5,554.5C 161.5,507.833 161.5,461.167 161.5,414.5 Z"/></g>
<g><path style="opacity:0.702" fill="#f9ebfe" d="M 491.5,414.5 C 510.071,445.306 528.905,475.973 548,506.5C 548.5,522.497 548.667,538.497 548.5,554.5C 522.167,554.5 495.833,554.5 469.5,554.5C 459.968,529.904 450.635,505.238 441.5,480.5C 441.5,458.5 441.5,436.5 441.5,414.5C 458.167,414.5 474.833,414.5 491.5,414.5 Z"/></g>
<g><path style="opacity:0.702" fill="#f9ebfe" d="M 747.5,414.5 C 749.363,416.705 751.697,418.039 754.5,418.5C 754.5,417.167 754.5,415.833 754.5,414.5C 774.5,414.5 794.5,414.5 814.5,414.5C 814.168,450.337 814.502,486.004 815.5,521.5C 815.915,532.741 818.581,543.408 823.5,553.5C 803.5,554.833 783.5,554.833 763.5,553.5C 768.84,530.352 762.174,511.518 743.5,497C 735.768,491.81 728.101,486.644 720.5,481.5C 720.5,459.167 720.5,436.833 720.5,414.5C 729.5,414.5 738.5,414.5 747.5,414.5 Z"/></g>
<g><path style="opacity:0.703" fill="#f9ebfe" d="M 859.5,414.5 C 859.667,460.835 859.5,507.168 859,553.5C 853.928,554.471 848.762,554.805 843.5,554.5C 837.393,544.089 834.06,532.756 833.5,520.5C 833.5,485.167 833.5,449.833 833.5,414.5C 842.167,414.5 850.833,414.5 859.5,414.5 Z"/></g>
<g><path style="opacity:0.918" fill="#c98eb5" d="M 1216.5,405.5 C 1216.5,408.5 1216.5,411.5 1216.5,414.5C 1216.5,438.167 1216.5,461.833 1216.5,485.5C 1218.5,485.5 1220.5,485.5 1222.5,485.5C 1220.39,486.468 1218.06,486.802 1215.5,486.5C 1215.17,459.328 1215.5,432.328 1216.5,405.5 Z"/></g>
<g><path style="opacity:0.702" fill="#f9ebfe" d="M 1318.5,414.5 C 1337.5,445.017 1356.34,475.684 1375,506.5C 1375.5,522.497 1375.67,538.497 1375.5,554.5C 1342.93,554.829 1310.43,554.496 1278,553.5C 1277.33,507.5 1277.33,461.5 1278,415.5C 1291.42,414.51 1304.92,414.177 1318.5,414.5 Z"/></g>
<g><path style="opacity:0.702" fill="#f9ebfe" d="M 1339.5,414.5 C 1365.17,414.333 1390.84,414.5 1416.5,415C 1417.48,423.415 1417.82,431.915 1417.5,440.5C 1409.12,458.933 1400.45,477.266 1391.5,495.5C 1390.64,496.583 1389.64,496.749 1388.5,496C 1371.91,468.93 1355.58,441.763 1339.5,414.5 Z"/></g>
<g><path style="opacity:0.703" fill="#f9ebfe" d="M 1653.5,414.5 C 1667.75,414.176 1681.91,414.51 1696,415.5C 1696.67,461.5 1696.67,507.5 1696,553.5C 1680.24,554.491 1664.41,554.825 1648.5,554.5C 1648.5,553.167 1648.5,551.833 1648.5,550.5C 1649.73,505.149 1651.4,459.815 1653.5,414.5 Z"/></g>
<g><path style="opacity:0.703" fill="#f9ebfe" d="M 1137.5,419.5 C 1138.66,463.998 1138.83,508.665 1138,553.5C 1107.74,554.832 1077.57,554.832 1047.5,553.5C 1077.08,508.578 1107.08,463.912 1137.5,419.5 Z"/></g>
<g><path style="opacity:0.866" fill="#f7e1fe" d="M 1556.5,485.5 C 1556.5,508.5 1556.5,531.5 1556.5,554.5C 1542.17,554.5 1527.83,554.5 1513.5,554.5C 1511.19,512.505 1509.86,470.505 1509.5,428.5C 1525.56,447.222 1541.23,466.222 1556.5,485.5 Z"/></g>
<g><path style="opacity:0.705" fill="#f9ebfe" d="M 1416.5,468.5 C 1417.66,496.664 1417.83,524.997 1417,553.5C 1409.92,554.48 1402.75,554.813 1395.5,554.5C 1395.5,537.5 1395.5,520.5 1395.5,503.5C 1402.11,491.566 1409.11,479.9 1416.5,468.5 Z"/></g>
<g><path style="opacity:0.933" fill="#be7aa4" d="M 1269.5,483.5 C 1271.61,482.532 1273.94,482.198 1276.5,482.5C 1276.5,486.833 1276.5,491.167 1276.5,495.5C 1274.26,495.795 1272.26,495.461 1270.5,494.5C 1272.17,494.5 1273.83,494.5 1275.5,494.5C 1275.5,490.833 1275.5,487.167 1275.5,483.5C 1273.5,483.5 1271.5,483.5 1269.5,483.5 Z"/></g>
<g><path style="opacity:0.704" fill="#f9ebfe" d="M 579.5,484.5 C 580.663,507.33 580.83,530.33 580,553.5C 576.27,554.46 572.437,554.793 568.5,554.5C 568.5,537.167 568.5,519.833 568.5,502.5C 572.167,496.5 575.833,490.5 579.5,484.5 Z"/></g>
<g><path style="opacity:0.703" fill="#f9eafe" d="M 1556.5,485.5 C 1575.87,508.203 1594.87,531.203 1613.5,554.5C 1594.5,554.5 1575.5,554.5 1556.5,554.5C 1556.5,531.5 1556.5,508.5 1556.5,485.5 Z"/></g>
<g><path style="opacity:0.886" fill="#e6c2e2" d="M 371.5,490.5 C 389.5,491.833 407.5,491.833 425.5,490.5C 426.043,490.56 426.376,490.893 426.5,491.5C 407.833,492.833 389.167,492.833 370.5,491.5C 370.624,490.893 370.957,490.56 371.5,490.5 Z"/></g>
<g><path style="opacity:0.918" fill="#c98fb5" d="M 1228.5,492.5 C 1224.5,492.5 1220.5,492.5 1216.5,492.5C 1216.5,513.167 1216.5,533.833 1216.5,554.5C 1216.5,563.167 1216.5,571.833 1216.5,580.5C 1215.5,551.005 1215.17,521.338 1215.5,491.5C 1220.03,491.182 1224.37,491.515 1228.5,492.5 Z"/></g>
<g><path style="opacity:0.702" fill="#f9eafd" d="M 721.5,505.5 C 730.791,511.624 738.624,519.29 745,528.5C 749.354,536.749 750.52,545.415 748.5,554.5C 738.833,554.5 729.167,554.5 719.5,554.5C 720.153,538.069 720.82,521.735 721.5,505.5 Z"/></g>
<g><path style="opacity:0.702" fill="#f9ebfe" d="M 28.5,554.5 C 72.8333,554.5 117.167,554.5 161.5,554.5C 161.5,600.833 161.5,647.167 161.5,693.5C 121.5,693.5 81.5,693.5 41.5,693.5C 28.5912,647.985 24.2578,601.651 28.5,554.5 Z"/></g>
<g><path style="opacity:0.702" fill="#f9ebfe" d="M 719.5,554.5 C 719.5,563.833 719.5,573.167 719.5,582.5C 698.158,584.996 679.158,579.496 662.5,566C 660.975,564.991 659.308,564.491 657.5,564.5C 657.678,569.039 657.345,573.539 656.5,578C 656.755,579.326 657.422,580.326 658.5,581C 678.29,587.743 698.623,590.576 719.5,589.5C 719.5,624.167 719.5,658.833 719.5,693.5C 673.167,693.5 626.833,693.5 580.5,693.5C 580.5,647.167 580.5,600.833 580.5,554.5C 626.833,554.5 673.167,554.5 719.5,554.5 Z"/></g>
<g><path style="opacity:0.864" fill="#f7e0fd" d="M 719.5,554.5 C 729.167,554.5 738.833,554.5 748.5,554.5C 744.764,569.901 735.098,579.235 719.5,582.5C 719.5,573.167 719.5,563.833 719.5,554.5 Z"/></g>
<g><path style="opacity:0.866" fill="#f7e1fe" d="M 763.5,553.5 C 783.5,554.833 803.5,554.833 823.5,553.5C 832.073,568.076 844.073,578.743 859.5,585.5C 859.5,621.5 859.5,657.5 859.5,693.5C 812.833,693.5 766.167,693.5 719.5,693.5C 719.5,658.833 719.5,624.167 719.5,589.5C 741.537,586.485 756.203,574.485 763.5,553.5 Z"/></g>
<g><path style="opacity:0.702" fill="#f9eafd" d="M 944.5,554.5 C 940.714,561.454 935.38,566.954 928.5,571C 905.504,583.3 882.504,583.466 859.5,571.5C 859.5,565.833 859.5,560.167 859.5,554.5C 887.833,554.5 916.167,554.5 944.5,554.5 Z"/></g>
<g><path style="opacity:0.702" fill="#f9ebfe" d="M 955.5,554.5 C 969.833,554.5 984.167,554.5 998.5,554.5C 998.5,600.833 998.5,647.167 998.5,693.5C 952.167,693.5 905.833,693.5 859.5,693.5C 859.5,657.5 859.5,621.5 859.5,585.5C 875.255,589.328 891.255,590.494 907.5,589C 929.869,586.1 945.869,574.6 955.5,554.5 Z"/></g>
<g><path style="opacity:0.867" fill="#f7e1fe" d="M 965.5,414.5 C 976.5,414.5 987.5,414.5 998.5,414.5C 998.333,460.835 998.5,507.168 999,553.5C 1007.41,554.483 1015.91,554.817 1024.5,554.5C 1018.83,563.167 1013.17,571.833 1007.5,580.5C 1006.54,582.265 1006.21,584.265 1006.5,586.5C 1050.5,586.5 1094.5,586.5 1138.5,586.5C 1138.5,622.167 1138.5,657.833 1138.5,693.5C 1091.83,693.5 1045.17,693.5 998.5,693.5C 998.5,647.167 998.5,600.833 998.5,554.5C 984.167,554.5 969.833,554.5 955.5,554.5C 957.952,547.36 959.785,540.027 961,532.5C 962.118,493.147 963.618,453.813 965.5,414.5 Z"/></g>
<g><path style="opacity:0.702" fill="#f9ecfe" d="M 1197.5,554.5 C 1197.5,565.167 1197.5,575.833 1197.5,586.5C 1224.17,586.5 1250.83,586.5 1277.5,586.5C 1277.5,622.167 1277.5,657.833 1277.5,693.5C 1231.17,693.5 1184.83,693.5 1138.5,693.5C 1138.5,657.833 1138.5,622.167 1138.5,586.5C 1141.83,586.5 1145.17,586.5 1148.5,586.5C 1148.82,581.637 1148.49,576.97 1147.5,572.5C 1144.5,572.5 1141.5,572.5 1138.5,572.5C 1138.5,566.5 1138.5,560.5 1138.5,554.5C 1158.17,554.5 1177.83,554.5 1197.5,554.5 Z"/></g>
<g><path style="opacity:0.702" fill="#f9ebfe" d="M 1216.5,554.5 C 1236.83,554.5 1257.17,554.5 1277.5,554.5C 1277.79,560.923 1277.46,567.256 1276.5,573.5C 1256.5,575.833 1236.5,578.166 1216.5,580.5C 1216.5,571.833 1216.5,563.167 1216.5,554.5 Z"/></g>
<g><path style="opacity:0.702" fill="#f9ebfe" d="M 1496.5,554.5 C 1496.5,560.167 1496.5,565.833 1496.5,571.5C 1495.51,576.305 1495.18,581.305 1495.5,586.5C 1501.83,586.5 1508.17,586.5 1514.5,586.5C 1514.81,582.629 1514.48,578.962 1513.5,575.5C 1513.5,568.5 1513.5,561.5 1513.5,554.5C 1527.83,554.5 1542.17,554.5 1556.5,554.5C 1556.5,600.833 1556.5,647.167 1556.5,693.5C 1510.17,693.5 1463.83,693.5 1417.5,693.5C 1417.5,647.167 1417.5,600.833 1417.5,554.5C 1443.83,554.5 1470.17,554.5 1496.5,554.5 Z"/></g>
<g><path style="opacity:0.867" fill="#f7e1fe" d="M 1969.5,548.5 C 1975.35,597.512 1971.35,645.845 1957.5,693.5C 1917.17,693.5 1876.83,693.5 1836.5,693.5C 1836.5,647.167 1836.5,600.833 1836.5,554.5C 1880.83,554.5 1925.17,554.5 1969.5,554.5C 1969.5,552.5 1969.5,550.5 1969.5,548.5 Z"/></g>
<g><path style="opacity:0.949" fill="#af5f8b" d="M 1147.5,572.5 C 1148.49,576.97 1148.82,581.637 1148.5,586.5C 1145.17,586.5 1141.83,586.5 1138.5,586.5C 1094.5,586.5 1050.5,586.5 1006.5,586.5C 1006.21,584.265 1006.54,582.265 1007.5,580.5C 1007.5,582.167 1007.5,583.833 1007.5,585.5C 1054.17,585.5 1100.83,585.5 1147.5,585.5C 1147.5,581.167 1147.5,576.833 1147.5,572.5 Z"/></g>
<g><path style="opacity:0.882" fill="#b87198" d="M 1496.5,571.5 C 1496.5,576.167 1496.5,580.833 1496.5,585.5C 1502.17,585.5 1507.83,585.5 1513.5,585.5C 1513.5,582.167 1513.5,578.833 1513.5,575.5C 1514.48,578.962 1514.81,582.629 1514.5,586.5C 1508.17,586.5 1501.83,586.5 1495.5,586.5C 1495.18,581.305 1495.51,576.305 1496.5,571.5 Z"/></g>
<g><path style="opacity:0.486" fill="#f4d8fb" d="M 1976.5,650.5 C 1976.5,665.167 1976.5,679.833 1976.5,694.5C 1973.17,694.5 1969.83,694.5 1966.5,694.5C 1969.98,679.74 1973.32,665.074 1976.5,650.5 Z"/></g>
<g><path style="opacity:0.703" fill="#f9ebfe" d="M 719.5,693.5 C 766.167,693.5 812.833,693.5 859.5,693.5C 859.5,714.167 859.5,734.833 859.5,755.5C 806.735,754.196 760.402,770.529 720.5,804.5C 720.827,767.427 720.493,730.427 719.5,693.5 Z"/></g>
<g><path style="opacity:0.702" fill="#f9ebfe" d="M 998.5,693.5 C 1045.17,693.5 1091.83,693.5 1138.5,693.5C 1138.5,713.833 1138.5,734.167 1138.5,754.5C 1129.12,755.217 1119.79,756.383 1110.5,758C 1078.44,767.112 1045.78,772.278 1012.5,773.5C 1007.83,773.5 1003.17,773.5 998.5,773.5C 998.5,746.833 998.5,720.167 998.5,693.5 Z"/></g>
<g><path style="opacity:0.703" fill="#f9ebfe" d="M 1303.5,832.5 C 1295.88,822.212 1287.21,812.879 1277.5,804.5C 1277.17,767.594 1277.5,730.761 1278.5,694C 1324.5,693.333 1370.5,693.333 1416.5,694C 1417.5,740.095 1417.83,786.261 1417.5,832.5C 1379.5,832.5 1341.5,832.5 1303.5,832.5 Z"/></g>
<g><path style="opacity:0.703" fill="#faebff" d="M 1556.5,693.5 C 1602.83,693.333 1649.17,693.5 1695.5,694C 1696.5,740.095 1696.83,786.261 1696.5,832.5C 1649.76,832.172 1603.09,832.505 1556.5,833.5C 1556.5,786.833 1556.5,740.167 1556.5,693.5 Z"/></g>
<g><path style="opacity:0.866" fill="#f7e1fe" d="M 623.5,413.5 C 638.324,414.496 653.324,414.829 668.5,414.5C 654.487,439.276 658.487,460.776 680.5,479C 694.231,487.857 707.898,496.691 721.5,505.5C 720.82,521.735 720.153,538.069 719.5,554.5C 673.167,554.5 626.833,554.5 580.5,554.5C 580.5,600.833 580.5,647.167 580.5,693.5C 626.833,693.5 673.167,693.5 719.5,693.5C 720.493,730.427 720.827,767.427 720.5,804.5C 710.731,813.929 701.731,823.929 693.5,834.5C 656.004,833.502 618.337,833.168 580.5,833.5C 580.169,864.005 580.502,894.338 581.5,924.5C 537.485,948.168 490.485,962.168 440.5,966.5C 440.5,922.167 440.5,877.833 440.5,833.5C 394.167,833.5 347.833,833.5 301.5,833.5C 301.173,873.906 301.506,914.239 302.5,954.5C 249.189,939.19 201.856,913.523 160.5,877.5C 161.496,863.01 161.829,848.343 161.5,833.5C 146.657,833.171 131.99,833.504 117.5,834.5C 82.0434,793.272 56.7101,746.272 41.5,693.5C 81.5,693.5 121.5,693.5 161.5,693.5C 161.5,647.167 161.5,600.833 161.5,554.5C 208.167,554.5 254.833,554.5 301.5,554.5C 301.5,600.833 301.5,647.167 301.5,693.5C 347.833,693.5 394.167,693.5 440.5,693.5C 440.5,647.167 440.5,600.833 440.5,554.5C 410.833,554.5 381.167,554.5 351.5,554.5C 356.554,536.004 362.22,517.671 368.5,499.5C 388.822,498.5 409.156,498.167 429.5,498.5C 439.882,527.598 450.548,556.598 461.5,585.5C 468.011,586.818 474.678,586.818 481.5,585.5C 481.376,584.893 481.043,584.56 480.5,584.5C 476.833,574.5 473.167,564.5 469.5,554.5C 495.833,554.5 522.167,554.5 548.5,554.5C 548.5,565.167 548.5,575.833 548.5,586.5C 554.833,586.5 561.167,586.5 567.5,586.5C 567.169,558.328 567.502,530.328 568.5,502.5C 568.5,519.833 568.5,537.167 568.5,554.5C 572.437,554.793 576.27,554.46 580,553.5C 580.83,530.33 580.663,507.33 579.5,484.5C 593.93,460.63 608.597,436.963 623.5,413.5 Z"/></g>
<g><path style="opacity:0.702" fill="#f9ebff" d="M 580.5,693.5 C 580.5,739.833 580.5,786.167 580.5,832.5C 534.167,832.5 487.833,832.5 441.5,832.5C 441.5,786.167 441.5,739.833 441.5,693.5C 487.833,693.5 534.167,693.5 580.5,693.5 Z"/></g>
<g><path style="opacity:0.702" fill="#f9ebff" d="M 301.5,693.5 C 301.5,739.833 301.5,786.167 301.5,832.5C 255.167,832.5 208.833,832.5 162.5,832.5C 162.5,786.167 162.5,739.833 162.5,693.5C 208.833,693.5 255.167,693.5 301.5,693.5 Z"/></g>
<g><path style="opacity:0.949" fill="#b1638f" d="M 480.5,584.5 C 481.043,584.56 481.376,584.893 481.5,585.5C 474.678,586.818 468.011,586.818 461.5,585.5C 468.022,585.823 474.355,585.49 480.5,584.5 Z"/></g>
<g><path style="opacity:0.702" fill="#f9ebfe" d="M 301.5,554.5 C 312.167,554.5 322.833,554.5 333.5,554.5C 329.833,564.5 326.167,574.5 322.5,584.5C 321.957,584.56 321.624,584.893 321.5,585.5C 328.322,586.818 334.989,586.818 341.5,585.5C 344.463,574.947 347.796,564.614 351.5,554.5C 381.167,554.5 410.833,554.5 440.5,554.5C 440.5,600.833 440.5,647.167 440.5,693.5C 394.167,693.5 347.833,693.5 301.5,693.5C 301.5,647.167 301.5,600.833 301.5,554.5 Z"/></g>
<g><path style="opacity:0.882" fill="#ac5c87" d="M 322.5,584.5 C 328.645,585.49 334.978,585.823 341.5,585.5C 334.989,586.818 328.322,586.818 321.5,585.5C 321.624,584.893 321.957,584.56 322.5,584.5 Z"/></g>
<g><path style="opacity:0.867" fill="#f7e1fe" d="M 859.5,693.5 C 905.833,693.5 952.167,693.5 998.5,693.5C 998.5,720.167 998.5,746.833 998.5,773.5C 1003.17,773.5 1007.83,773.5 1012.5,773.5C 984.098,775.187 955.764,773.354 927.5,768C 905.208,761.785 882.542,757.618 859.5,755.5C 859.5,734.833 859.5,714.167 859.5,693.5 Z"/></g>
<g><path style="opacity:0.866" fill="#f7e1fe" d="M 1696.5,227.5 C 1734.66,237.587 1770,253.587 1802.5,275.5C 1767.17,275.5 1731.83,275.5 1696.5,275.5C 1696.5,321.833 1696.5,368.167 1696.5,414.5C 1742.83,414.5 1789.17,414.5 1835.5,414.5C 1835.5,461.167 1835.5,507.833 1835.5,554.5C 1789.17,554.5 1742.83,554.5 1696.5,554.5C 1696.5,600.833 1696.5,647.167 1696.5,693.5C 1742.83,693.5 1789.17,693.5 1835.5,693.5C 1835.5,740.167 1835.5,786.833 1835.5,833.5C 1789.17,833.5 1742.83,833.5 1696.5,833.5C 1696.17,873.67 1696.5,913.67 1697.5,953.5C 1651.02,967.201 1603.69,971.534 1555.5,966.5C 1556.5,922.336 1556.83,878.003 1556.5,833.5C 1603.09,832.505 1649.76,832.172 1696.5,832.5C 1696.83,786.261 1696.5,740.095 1695.5,694C 1649.17,693.5 1602.83,693.333 1556.5,693.5C 1556.5,647.167 1556.5,600.833 1556.5,554.5C 1575.5,554.5 1594.5,554.5 1613.5,554.5C 1623.62,565.39 1633.29,576.723 1642.5,588.5C 1644.05,589.452 1645.71,589.785 1647.5,589.5C 1647.17,576.323 1647.5,563.323 1648.5,550.5C 1648.5,551.833 1648.5,553.167 1648.5,554.5C 1664.41,554.825 1680.24,554.491 1696,553.5C 1696.67,507.5 1696.67,461.5 1696,415.5C 1681.91,414.51 1667.75,414.176 1653.5,414.5C 1653.5,409.5 1653.5,404.5 1653.5,399.5C 1647.5,399.5 1641.5,399.5 1635.5,399.5C 1635.5,404.5 1635.5,409.5 1635.5,414.5C 1609.17,414.5 1582.83,414.5 1556.5,414.5C 1556.5,368.167 1556.5,321.833 1556.5,275.5C 1602.83,275.667 1649.17,275.5 1695.5,275C 1696.49,259.244 1696.82,243.411 1696.5,227.5 Z"/></g>
<g><path style="opacity:0.702" fill="#f9eafd" d="M 160.5,877.5 C 144.5,864.833 130.167,850.5 117.5,834.5C 131.99,833.504 146.657,833.171 161.5,833.5C 161.829,848.343 161.496,863.01 160.5,877.5 Z"/></g>
<g><path style="opacity:0.702" fill="#f9ebfe" d="M 440.5,966.5 C 393.73,971.285 347.73,967.285 302.5,954.5C 301.506,914.239 301.173,873.906 301.5,833.5C 347.833,833.5 394.167,833.5 440.5,833.5C 440.5,877.833 440.5,922.167 440.5,966.5 Z"/></g>
<g><path style="opacity:0.702" fill="#f9ebfe" d="M 693.5,834.5 C 662.181,872.137 624.847,902.137 581.5,924.5C 580.502,894.338 580.169,864.005 580.5,833.5C 618.337,833.168 656.004,833.502 693.5,834.5 Z"/></g>
<g><path style="opacity:0.702" fill="#f9ebfe" d="M 1556.5,833.5 C 1556.83,878.003 1556.5,922.336 1555.5,966.5C 1506.52,961.947 1460.52,947.947 1417.5,924.5C 1417.5,894.167 1417.5,863.833 1417.5,833.5C 1463.83,833.5 1510.17,833.5 1556.5,833.5 Z"/></g>
<g><path style="opacity:0.867" fill="#f7e0fd" d="M 1883.5,832.5 C 1869.5,849.833 1853.83,865.5 1836.5,879.5C 1836.5,863.833 1836.5,848.167 1836.5,832.5C 1852.17,832.5 1867.83,832.5 1883.5,832.5 Z"/></g>
<g><path style="opacity:0.539" fill="#f4d8fc" d="M 1696.5,963.5 C 1696.5,966.833 1696.5,970.167 1696.5,973.5C 1681.17,973.5 1665.83,973.5 1650.5,973.5C 1665.73,970.195 1681.07,966.861 1696.5,963.5 Z"/></g>
</svg>
